<?xml version="1.0" encoding="utf-8"?>
<!-- Generator: Adobe Illustrator 21.1.0, SVG Export Plug-In . SVG Version: 6.00 Build 0)  -->
<svg version="1.1" id="Layer_1" xmlns="http://www.w3.org/2000/svg" xmlns:xlink="http://www.w3.org/1999/xlink" x="0px" y="0px"
	 viewBox="0 0 40 40" enable-background="new 0 0 40 40" xml:space="preserve">
<path fill="#FFB819" d="M20,0C8.955,0,0,8.955,0,20s8.955,20,20,20s20-8.955,20-20S31.045,0,20,0z M20,2c9.925,0,18,8.075,18,18
	c0,2.253-0.435,4.402-1.194,6.392l-5.648-5.648c0.288-0.52,0.467-1.109,0.467-1.744c0-1.999-1.626-3.625-3.625-3.625
	S24.375,17.001,24.375,19c0,0.635,0.179,1.224,0.467,1.744L23,22.586l-3.481-3.481C19.82,18.463,20,17.754,20,17
	c0-2.757-2.243-5-5-5s-5,2.243-5,5c0,0.754,0.18,1.463,0.481,2.105l-7.287,7.287C2.435,24.402,2,22.253,2,20C2,10.075,10.075,2,20,2
	z M26.125,19c0-1.034,0.841-1.875,1.875-1.875s1.875,0.841,1.875,1.875S29.034,20.875,28,20.875S26.125,20.034,26.125,19z M12,17
	c0-1.654,1.346-3,3-3s3,1.346,3,3s-1.346,3-3,3S12,18.654,12,17z M20,38c-6.913,0-12.918-3.922-15.933-9.653l7.626-7.626
	C12.577,21.507,13.727,22,15,22s2.423-0.493,3.307-1.279l3.986,3.986C22.488,24.902,22.744,25,23,25s0.512-0.098,0.707-0.293
	l2.549-2.549c0.52,0.288,1.109,0.467,1.744,0.467s1.224-0.179,1.744-0.467l6.189,6.189C32.918,34.078,26.913,38,20,38z"/>
</svg>
