<svg xmlns="http://www.w3.org/2000/svg" xmlns:xlink="http://www.w3.org/1999/xlink">
	<symbol id="add" viewBox="0 0 20 20">
		<path fill="currentColor" d="M10,1.333c4.779,0,8.667,3.888,8.667,8.667S14.779,18.667,10,18.667S1.333,14.779,1.333,10S5.221,1.333,10,1.333 M10,0
			C4.477,0,0,4.477,0,10s4.477,10,10,10s10-4.477,10-10S15.523,0,10,0L10,0z"/>
		<path fill="currentColor" d="M14,9.333h-3.333V6c0-0.368-0.298-0.667-0.667-0.667S9.333,5.632,9.333,6v3.333H6c-0.368,0-0.667,0.298-0.667,0.667
			S5.632,10.667,6,10.667h3.333V14c0,0.368,0.298,0.666,0.667,0.666s0.667-0.298,0.667-0.666v-3.333H14
			c0.368,0,0.666-0.298,0.666-0.667S14.368,9.333,14,9.333z"/>
	</symbol>

	<symbol id="subtract" viewBox="0 0 20 20">
		<path fill="currentColor" d="M10,1.333c4.779,0,8.667,3.888,8.667,8.667S14.779,18.667,10,18.667S1.333,14.779,1.333,10S5.221,1.333,10,1.333 M10,0
			C4.477,0,0,4.477,0,10s4.477,10,10,10s10-4.477,10-10S15.523,0,10,0L10,0z"/>
		<path fill="currentColor" d="M14,10.667H6c-0.368,0-0.667-0.298-0.667-0.667S5.632,9.333,6,9.333h8c0.368,0,0.666,0.298,0.666,0.667
			S14.368,10.667,14,10.667z"/>
	</symbol>

	<symbol id="check" viewBox="0 0 20 20">
		<path fill="currentColor" display="inline" d="M15.222,6.279c-0.262-0.261-0.682-0.261-0.943,0L8.297,12.26L5.565,9.529
		c-0.26-0.261-0.683-0.261-0.942,0c-0.26,0.26-0.26,0.682,0,0.942l3.203,3.204c0.13,0.13,0.301,0.194,0.471,0.194
			s0.341-0.064,0.471-0.194l6.454-6.454C15.481,6.961,15.481,6.539,15.222,6.279z"/>
		<path fill="currentColor" display="inline" d="M10,1.333c4.779,0,8.667,3.888,8.667,8.667S14.779,18.667,10,18.667S1.333,14.779,1.333,10
			S5.221,1.333,10,1.333 M10,0C4.477,0,0,4.477,0,10s4.477,10,10,10s10-4.477,10-10S15.523,0,10,0L10,0z"/>
	</symbol>

	<symbol id="cancel" viewBox="0 0 20 20">
		<path fill="currentColor" d="M10.91,10.031l3.061-3.061c0.259-0.26,0.259-0.681,0-0.94c-0.26-0.26-0.682-0.26-0.941,0L9.969,9.09l-3.03-3.029
		c-0.26-0.26-0.681-0.26-0.94,0s-0.26,0.681,0,0.94l3.029,3.03L6.03,13.029c-0.26,0.26-0.26,0.682,0,0.941
		c0.13,0.129,0.3,0.194,0.47,0.194s0.34-0.065,0.47-0.194l2.998-2.998l3.029,3.03c0.13,0.129,0.301,0.194,0.471,0.194
		s0.341-0.065,0.471-0.194c0.259-0.26,0.259-0.682,0-0.941L10.91,10.031z"/>
		<path fill="currentColor" d="M10,1.333c4.779,0,8.667,3.888,8.667,8.667S14.779,18.667,10,18.667S1.333,14.779,1.333,10S5.221,1.333,10,1.333 M10,0
			C4.477,0,0,4.477,0,10s4.477,10,10,10s10-4.477,10-10S15.523,0,10,0L10,0z"/>
	</symbol>

	<symbol id="check-medium" viewBox="0 0 30 30">
		<path fill="currentColor" d="M22.714,9.689c-0.262-0.261-0.682-0.261-0.943,0l-9.208,9.208l-4.333-4.333c-0.26-0.261-0.683-0.261-0.942,0
		c-0.26,0.26-0.26,0.682,0,0.942l4.805,4.805c0.13,0.13,0.301,0.194,0.471,0.194s0.341-0.064,0.471-0.194l9.68-9.68
		C22.974,10.371,22.974,9.949,22.714,9.689z"/>
		<path fill="currentColor" d="M15,1.33c7.538,0,13.67,6.132,13.67,13.67S22.538,28.67,15,28.67S1.33,22.538,1.33,15S7.462,1.33,15,1.33 M15,0
			C6.716,0,0,6.716,0,15s6.716,15,15,15s15-6.716,15-15S23.284,0,15,0L15,0z"/>
	</symbol>

	<symbol id="cancel-medium" viewBox="0 0 30 30">
		<path fill="currentColor" d="M15,1.33c7.538,0,13.67,6.132,13.67,13.67S22.538,28.67,15,28.67S1.33,22.538,1.33,15S7.462,1.33,15,1.33 M15,0
			C6.716,0,0,6.716,0,15s6.716,15,15,15s15-6.716,15-15S23.284,0,15,0L15,0z"/>
		<path fill="currentColor" display="inline" d="M15.941,15l4.78-4.78c0.259-0.26,0.259-0.681,0-0.94c-0.26-0.26-0.682-0.26-0.941,0L15,14.059L10.22,9.28
			c-0.26-0.26-0.681-0.26-0.94,0s-0.26,0.681,0,0.94L14.059,15L9.28,19.779c-0.26,0.26-0.26,0.682,0,0.941
			c0.13,0.129,0.3,0.194,0.47,0.194s0.34-0.065,0.47-0.194l4.78-4.78l4.779,4.78c0.13,0.129,0.301,0.194,0.471,0.194
			s0.341-0.065,0.471-0.194c0.259-0.26,0.259-0.682,0-0.941L15.941,15z"/>
	</symbol>

	<symbol id="delete" viewBox="0 0 20 20">
		<line fill="none" stroke="currentColor" stroke-width="1.33" stroke-linecap="round" stroke-linejoin="round" stroke-miterlimit="10" x1="3" y1="4" x2="17" y2="4"/>
		<polyline fill="none" stroke="currentColor" stroke-width="1.33" stroke-linecap="round" stroke-linejoin="round" stroke-miterlimit="10" points="
		7,3 7,1 13,1 13,3 	"/>
		<polyline fill="none" stroke="currentColor" stroke-width="1.33" stroke-linecap="round" stroke-linejoin="round" stroke-miterlimit="10" points="
		4,4 4,19 16,19 16,4 	"/>
		<line fill="none" stroke="currentColor" stroke-width="1.33" stroke-linecap="round" stroke-linejoin="round" stroke-miterlimit="10" x1="8" y1="7" x2="8" y2="16"/>
		<line fill="none" stroke="currentColor" stroke-width="1.33" stroke-linecap="round" stroke-linejoin="round" stroke-miterlimit="10" x1="12" y1="7" x2="12" y2="16"/>
	</symbol>

	<symbol id="close" viewBox="0 0 20 20">
		<line fill="none" stroke="#000000" stroke-width="1.33" stroke-linecap="round" stroke-miterlimit="10" x1="2.469" y1="2.531" x2="17.469" y2="17.531"/>

		<line fill="none" stroke="#000000" stroke-width="1.33" stroke-linecap="round" stroke-miterlimit="10" x1="17.5" y1="2.5" x2="2.5" y2="17.5"/>
</symbol>

	<symbol id="" viewBox="0 0 20 20">
	</symbol>
</svg>
